<svg width="210" height="18" viewBox="0 0 210 18" fill="none" xmlns="http://www.w3.org/2000/svg">
<path d="M7.784 17.24C6.296 17.24 5.008 16.912 3.92 16.256C2.832 15.6 1.984 14.672 1.376 13.472C0.768 12.256 0.464 10.792 0.464 9.08C0.464 7.4 0.776 5.952 1.4 4.736C2.04 3.52 2.936 2.584 4.088 1.928C5.256 1.256 6.592 0.92 8.096 0.92C9.744 0.92 11.072 1.224 12.08 1.832C13.104 2.44 13.92 3.384 14.528 4.664L12.152 5.792C11.848 4.912 11.344 4.256 10.64 3.824C9.952 3.376 9.112 3.152 8.12 3.152C7.128 3.152 6.256 3.384 5.504 3.848C4.768 4.312 4.192 4.992 3.776 5.888C3.36 6.768 3.152 7.832 3.152 9.08C3.152 10.344 3.336 11.424 3.704 12.32C4.072 13.2 4.624 13.872 5.36 14.336C6.112 14.8 7.032 15.032 8.12 15.032C8.712 15.032 9.264 14.96 9.776 14.816C10.288 14.656 10.736 14.432 11.12 14.144C11.504 13.84 11.8 13.464 12.008 13.016C12.232 12.552 12.344 12.008 12.344 11.384V10.928H7.736V8.84H14.624V17H12.704L12.56 13.808L13.04 14.048C12.656 15.056 12.016 15.84 11.12 16.4C10.24 16.96 9.128 17.24 7.784 17.24ZM31.3432 1.16V10.928C31.3432 13.024 30.7912 14.6 29.6872 15.656C28.5832 16.712 26.9752 17.24 24.8632 17.24C22.7832 17.24 21.1832 16.712 20.0632 15.656C18.9592 14.6 18.4072 13.024 18.4072 10.928V1.16H20.9752V10.616C20.9752 12.104 21.2952 13.208 21.9352 13.928C22.5752 14.648 23.5512 15.008 24.8632 15.008C26.1912 15.008 27.1752 14.648 27.8152 13.928C28.4552 13.208 28.7752 12.104 28.7752 10.616V1.16H31.3432ZM33.3003 17L39.2763 1.16H42.3483L48.3243 17H45.6123L41.5323 5.672L40.8123 3.392H40.7403L40.0683 5.624L35.9403 17H33.3003ZM36.4923 12.848V10.76H45.0603V12.848H36.4923ZM57.5893 1.16C59.2853 1.16 60.6293 1.584 61.6213 2.432C62.6293 3.28 63.1333 4.424 63.1333 5.864C63.1333 7.352 62.6293 8.504 61.6213 9.32C60.6293 10.12 59.2853 10.52 57.5893 10.52L57.3493 10.664H53.6773V17H51.1333V1.16H57.5893ZM57.3973 8.528C58.4373 8.528 59.2053 8.32 59.7013 7.904C60.2133 7.472 60.4693 6.816 60.4693 5.936C60.4693 5.072 60.2133 4.424 59.7013 3.992C59.2053 3.56 58.4373 3.344 57.3973 3.344H53.6773V8.528H57.3973ZM58.9093 9.056L64.0693 17H61.1172L56.7013 10.064L58.9093 9.056ZM72.8503 1.16C75.3303 1.16 77.2583 1.848 78.6343 3.224C80.0263 4.584 80.7223 6.536 80.7223 9.08C80.7223 11.624 80.0263 13.584 78.6343 14.96C77.2583 16.32 75.3303 17 72.8503 17H67.2583V1.16H72.8503ZM72.8503 14.816C74.5303 14.816 75.8103 14.32 76.6903 13.328C77.5863 12.32 78.0343 10.904 78.0343 9.08C78.0343 7.256 77.5863 5.848 76.6903 4.856C75.8103 3.848 74.5303 3.344 72.8503 3.344H69.8263V14.816H72.8503ZM87.0997 1.16V17H84.5317V1.16H87.0997ZM89.9253 17L95.9013 1.16H98.9733L104.949 17H102.237L98.1573 5.672L97.4373 3.392H97.3653L96.6933 5.624L92.5653 17H89.9253ZM93.1173 12.848V10.76H101.685V12.848H93.1173ZM120.742 1.16V17H117.694L111.574 7.016L110.038 4.208H110.014L110.11 6.776V17H107.758V1.16H110.782L116.878 11.12L118.438 13.976H118.462L118.366 11.384V1.16H120.742ZM130.519 17L136.495 1.16H139.567L145.543 17H142.831L138.751 5.672L138.031 3.392H137.959L137.287 5.624L133.159 17H130.519ZM133.711 12.848V10.76H142.279V12.848H133.711ZM161.336 1.16V17H158.288L152.168 7.016L150.632 4.208H150.608L150.704 6.776V17H148.352V1.16H151.376L157.472 11.12L159.032 13.976H159.056L158.96 11.384V1.16H161.336ZM172.456 17.24C170.968 17.24 169.68 16.912 168.592 16.256C167.504 15.6 166.656 14.672 166.048 13.472C165.44 12.256 165.136 10.792 165.136 9.08C165.136 7.4 165.448 5.952 166.072 4.736C166.712 3.52 167.608 2.584 168.76 1.928C169.928 1.256 171.264 0.92 172.768 0.92C174.416 0.92 175.744 1.224 176.752 1.832C177.776 2.44 178.592 3.384 179.2 4.664L176.824 5.792C176.52 4.912 176.016 4.256 175.312 3.824C174.624 3.376 173.784 3.152 172.792 3.152C171.8 3.152 170.928 3.384 170.176 3.848C169.44 4.312 168.864 4.992 168.448 5.888C168.032 6.768 167.824 7.832 167.824 9.08C167.824 10.344 168.008 11.424 168.376 12.32C168.744 13.2 169.296 13.872 170.032 14.336C170.784 14.8 171.704 15.032 172.792 15.032C173.384 15.032 173.936 14.96 174.448 14.816C174.96 14.656 175.408 14.432 175.792 14.144C176.176 13.84 176.472 13.464 176.68 13.016C176.904 12.552 177.016 12.008 177.016 11.384V10.928H172.408V8.84H179.296V17H177.376L177.232 13.808L177.712 14.048C177.328 15.056 176.688 15.84 175.792 16.4C174.912 16.96 173.8 17.24 172.456 17.24ZM183.391 17V1.16H194.863V3.368H185.959V7.928H192.919V10.088H185.959V14.792H195.199V17H183.391ZM201.217 14.792H209.953V17H198.649V1.16H201.217V14.792Z" fill="#FBFCFE"/>
</svg>
